<?xml version="1.0" standalone="no"?>
<!DOCTYPE svg PUBLIC "-//W3C//DTD SVG 20010904//EN"
 "http://www.w3.org/TR/2001/REC-SVG-20010904/DTD/svg10.dtd">
<svg version="1.0" xmlns="http://www.w3.org/2000/svg"
 width="500.000000pt" height="500.000000pt" viewBox="0 0 500.000000 500.000000"
 preserveAspectRatio="xMidYMid meet">

<g transform="translate(0.000000,500.000000) scale(0.100000,-0.100000)"
fill="#000000" stroke="none">
<path d="M1549 2793 c-1 -259 -2 -275 -15 -236 -12 33 -21 42 -42 45 -26 3
-27 5 -30 76 l-3 72 36 0 c35 0 35 0 35 45 0 45 0 45 -35 45 l-35 0 0 65 0 65
-60 0 -60 0 0 -65 c0 -63 -1 -65 -25 -65 -23 0 -25 -4 -25 -45 0 -41 2 -45 25
-45 24 0 25 -2 25 -72 0 -145 37 -195 135 -183 28 3 83 5 123 5 l72 -1 0 110
c0 98 2 113 20 131 28 28 64 25 89 -6 18 -23 21 -41 21 -130 l0 -104 55 0 55
0 0 130 c0 96 -4 139 -15 160 -29 57 -157 78 -206 34 -19 -17 -19 -15 -19 114
l0 132 -60 0 -60 0 -1 -277z"/>
<path d="M3265 3042 c-75 -35 -117 -111 -100 -179 12 -48 43 -79 117 -118 86
-45 108 -62 108 -86 0 -53 -86 -66 -164 -24 -26 14 -49 25 -51 25 -7 0 -55
-86 -55 -98 0 -6 24 -22 54 -37 131 -64 296 -32 336 65 l12 30 28 -44 c47 -73
136 -102 232 -76 38 11 98 54 98 71 0 5 -18 18 -41 29 -36 19 -43 20 -57 6
-42 -37 -123 -23 -135 24 -5 19 -1 20 120 20 l126 0 -5 51 c-6 62 -30 97 -89
127 -91 48 -213 11 -256 -76 l-20 -40 -26 33 c-15 19 -63 52 -115 79 -93 47
-109 64 -92 96 15 28 54 32 115 12 l56 -19 25 49 25 49 -47 20 c-67 30 -149
35 -199 11z m503 -300 c14 -22 14 -22 -52 -22 -49 0 -66 3 -66 14 0 28 48 48
84 36 11 -4 26 -17 34 -28z"/>
<path d="M336 3018 c-6 -34 -46 -477 -46 -503 0 -12 13 -15 59 -15 71 0 67 -7
76 146 12 196 12 196 75 17 l55 -158 36 -3 c28 -2 38 1 44 15 3 10 26 76 50
146 60 174 61 175 69 71 4 -49 9 -122 13 -161 l6 -73 62 0 62 0 -5 53 -4 52
23 -34 c62 -89 137 -102 251 -43 5 2 8 -3 8 -12 0 -13 11 -16 55 -16 l55 0 0
170 0 170 -60 0 c-33 0 -60 -4 -60 -9 0 -6 -16 -3 -35 5 -96 40 -195 -4 -230
-103 -8 -21 -14 -33 -15 -28 0 6 -7 75 -15 155 -8 80 -15 155 -15 168 0 21 -4
22 -68 22 l-67 0 -59 -155 c-33 -85 -62 -152 -65 -149 -3 3 -31 72 -62 152
l-56 147 -66 3 -66 3 -5 -33z m801 -283 c29 -21 38 -66 19 -103 -38 -74 -146
-43 -146 42 0 61 75 97 127 61z"/>
<path d="M2035 2837 c-80 -37 -129 -132 -106 -207 40 -134 213 -184 321 -94
39 33 38 47 -5 67 -33 16 -37 16 -75 -4 -34 -18 -44 -19 -74 -9 -30 10 -56 43
-44 56 3 2 57 4 121 5 l117 1 0 42 c0 48 -27 96 -73 130 -34 25 -138 33 -182
13z m128 -85 c29 -26 19 -32 -48 -32 -67 0 -74 4 -52 32 22 29 65 29 100 0z"/>
<path d="M2774 2836 c-42 -18 -64 -52 -64 -97 0 -43 35 -79 102 -106 26 -10
38 -21 36 -32 -4 -22 -54 -26 -83 -7 -34 22 -38 21 -59 -19 -17 -31 -18 -38
-5 -49 53 -50 199 -46 246 6 52 58 32 135 -44 169 -76 34 -78 35 -78 50 0 15
54 19 91 6 16 -6 23 -1 37 28 9 20 17 38 17 40 0 9 -77 25 -120 25 -25 -1 -59
-7 -76 -14z"/>
<path d="M4080 2843 c-8 -3 -23 -12 -32 -21 -16 -14 -18 -13 -18 1 0 14 -11
17 -60 17 l-60 0 0 -170 0 -170 60 0 60 0 0 110 c0 97 2 112 20 130 28 28 64
25 89 -6 18 -23 21 -41 21 -130 l0 -104 55 0 55 0 0 130 c0 154 -9 179 -70
204 -40 16 -91 20 -120 9z"/>
<path d="M4369 2827 c-183 -123 -39 -417 156 -317 47 24 45 24 45 5 0 -12 13
-15 55 -15 l55 0 0 170 0 170 -60 0 c-33 0 -60 -4 -60 -9 0 -6 -16 -3 -35 5
-52 21 -116 18 -156 -9z m168 -92 c29 -21 38 -66 19 -103 -38 -74 -146 -43
-146 42 0 61 75 97 127 61z"/>
<path d="M2302 2718 c6 -189 34 -223 188 -223 154 0 180 32 180 225 l0 120
-55 0 -55 0 -1 -87 c0 -49 -5 -104 -12 -123 -11 -33 -15 -35 -57 -35 -60 0
-70 21 -70 148 l0 97 -61 0 -61 0 4 -122z"/>
<path d="M2517 2233 c-11 -10 -8 -143 3 -143 6 0 10 32 10 75 0 75 -1 81 -13
68z"/>
<path d="M1510 2160 l0 -70 38 0 c43 0 54 6 71 38 27 50 -9 102 -70 102 l-39
0 0 -70z m92 25 c17 -38 -3 -75 -42 -75 -29 0 -30 1 -30 50 0 49 1 50 30 50
23 0 33 -6 42 -25z"/>
<path d="M1790 2180 c-24 -24 -25 -38 -4 -68 11 -16 24 -22 42 -20 37 4 38 23
0 23 -17 0 -33 6 -35 13 -3 8 8 12 36 12 47 0 55 19 19 44 -29 20 -34 20 -58
-4z m58 -17 c2 -8 -6 -13 -22 -13 -25 0 -33 10 -19 24 10 10 36 3 41 -11z"/>
<path d="M2277 2182 c-21 -23 -22 -65 -3 -81 17 -14 68 -11 73 4 2 6 -11 10
-29 10 -17 0 -33 6 -35 13 -3 8 7 12 31 12 29 0 36 4 36 20 0 18 -26 40 -48
40 -5 0 -16 -8 -25 -18z m51 -19 c2 -8 -6 -13 -22 -13 -25 0 -33 10 -19 24 10
10 36 3 41 -11z"/>
<path d="M2700 2180 c-11 -11 -20 -26 -20 -33 0 -24 31 -57 54 -57 26 0 56 28
56 53 0 21 -35 57 -55 57 -8 0 -24 -9 -35 -20z m63 -21 c15 -24 1 -49 -27 -49
-29 0 -44 33 -25 56 15 18 38 15 52 -7z"/>
<path d="M2981 2191 c-8 -5 -20 -7 -28 -4 -10 4 -13 -11 -13 -66 0 -41 4 -71
10 -71 6 0 10 10 10 23 0 20 4 23 28 19 35 -5 55 17 50 54 -4 32 -37 57 -57
45z m34 -46 c0 -25 -4 -30 -25 -30 -28 0 -39 27 -19 51 20 24 44 13 44 -21z"/>
<path d="M3207 2182 c-21 -23 -22 -65 -3 -81 17 -14 68 -11 73 4 2 6 -11 10
-29 10 -17 0 -33 6 -35 13 -3 8 7 12 31 12 29 0 36 4 36 20 0 18 -26 40 -48
40 -5 0 -16 -8 -25 -18z m51 -19 c2 -8 -6 -13 -22 -13 -25 0 -33 10 -19 24 10
10 36 3 41 -11z"/>
<path d="M3475 2190 c-3 -5 -12 -7 -20 -3 -12 4 -15 -5 -15 -46 0 -28 5 -51
10 -51 6 0 10 18 10 41 0 32 4 42 20 46 11 3 20 9 20 14 0 12 -17 11 -25 -1z"/>
<path d="M2026 2168 c9 -30 33 -78 39 -78 6 0 30 48 39 78 5 13 3 22 -3 22 -6
0 -11 -6 -11 -13 0 -7 -7 -22 -14 -33 -14 -18 -15 -18 -26 14 -13 36 -35 45
-24 10z"/>
</g>
</svg>
